<svg xmlns="http://www.w3.org/2000/svg" width="3000" height="3000" viewBox="0 0 3000 3000">
  <defs>
    <style>
      .cls-1 {
        fill: #dd5151;
      }

      .cls-2 {
        fill: #fff;
        fill-rule: evenodd;
      }
    </style>
  </defs>
  <circle class="cls-1" cx="1500" cy="1500" r="1500"/>
  <path id="Color_Fill_2" data-name="Color Fill 2" class="cls-2" d="M2051,859c33.52-.909,55.14,21.955,77,35q79.485,46,159,92c20.49,12.272,57.13,23.33,70,43,12.95,19.79-8.32,52.49-19,63-21.06-3.28-74.8-42.08-95-54q-113.985-65.994-228-132C2024.18,887.052,2033.61,870.075,2051,859Zm-57,84q116.49,67.493,233,135c18.74,11.21,78.63,37.88,89,52q-202.98,352.47-406,705c-19.11-2.76-64.32-35.5-82-46q-83.985-48.495-168-97c-19.5-11.58-59.76-26.77-73-43Q1790.475,1296.035,1994,943Zm-429,743q121.995,70.5,244,141c13.27,7.89,74.77,36.82,78,48-10.53,18.86-23.8,55.84-57,42q-104.985,74.985-210,150c-22.57,15.46-57.27,53.18-88,56-2.33-1.33-4.67-2.67-7-4-8.07-30.1-.22-73.85,5-106q10.005-96.99,20-194,2.505-30,5-60c-3.27-9.86-17.85-13.43-13-33Q1553.505,1706.005,1565,1686ZM664,2076h641q83.985,0.495,168,1c11.46,4.05,26.17,18.86,22,38-2.14,9.8-10.54,20.43-19,24-11.36,4.8-33.18,2-48,2H663c-20.425-5.15-31.9-34.41-17-54Q655,2081.5,664,2076Z"/>
</svg>
